<svg width="96" height="96" viewBox="0 0 96 96" fill="none" xmlns="http://www.w3.org/2000/svg">
<g clip-path="url(#clip0_44_199)">
<path d="M36.0122 33C36.0122 35.3869 35.064 37.6761 33.3762 39.364C31.6883 41.0518 29.3992 42 27.0122 42C24.6253 42 22.3361 41.0518 20.6482 39.364C18.9604 37.6761 18.0122 35.3869 18.0122 33C18.0122 30.6131 18.9604 28.3239 20.6482 26.636C22.3361 24.9482 24.6253 24 27.0122 24C29.3992 24 31.6883 24.9482 33.3762 26.636C35.064 28.3239 36.0122 30.6131 36.0122 33Z" fill="#DEE2E6"/>
<path d="M9 12C6.61305 12 4.32387 12.9482 2.63604 14.636C0.948211 16.3239 0 18.6131 0 21L0 75C0 77.3869 0.948211 79.6761 2.63604 81.364C4.32387 83.0518 6.61305 84 9 84H87C89.3869 84 91.6761 83.0518 93.364 81.364C95.0518 79.6761 96 77.3869 96 75V21C96 18.6131 95.0518 16.3239 93.364 14.636C91.6761 12.9482 89.3869 12 87 12H9ZM87 18C87.7956 18 88.5587 18.3161 89.1213 18.8787C89.6839 19.4413 90 20.2044 90 21V57L67.35 45.318C66.7873 45.0361 66.1503 44.9384 65.529 45.0385C64.9077 45.1386 64.3336 45.4316 63.888 45.876L41.628 68.136L25.668 57.504C25.0918 57.1204 24.4006 56.9478 23.7116 57.0156C23.0227 57.0834 22.3784 57.3874 21.888 57.876L6.012 72V75.24C6.00483 75.1602 6.00082 75.0801 6 75V21C6 20.2044 6.31607 19.4413 6.87868 18.8787C7.44129 18.3161 8.20435 18 9 18H87Z" fill="#DEE2E6"/>
</g>
<defs>
<clipPath id="clip0_44_199">
<rect width="96" height="96" fill="white"/>
</clipPath>
</defs>
</svg>
