<svg width="244" height="59" viewBox="0 0 244 59" fill="none" xmlns="http://www.w3.org/2000/svg">
<path d="M4.37587 46.512C3.35187 46.512 2.51987 46.2774 1.87987 45.808C1.28253 45.3387 0.919866 44.72 0.791866 43.952C0.663866 43.1414 0.8132 42.2454 1.23987 41.264L18.1359 3.82404C18.6905 2.58671 19.3519 1.71204 20.1199 1.20004C20.9305 0.645376 21.8479 0.368042 22.8719 0.368042C23.8532 0.368042 24.7279 0.645376 25.4959 1.20004C26.3065 1.71204 26.9892 2.58671 27.5439 3.82404L44.5039 41.264C44.9732 42.2454 45.1439 43.1414 45.0159 43.952C44.8879 44.7627 44.5252 45.4027 43.9279 45.872C43.3305 46.2987 42.5412 46.512 41.5599 46.512C40.3652 46.512 39.4265 46.2347 38.7439 45.68C38.1039 45.0827 37.5279 44.1867 37.0159 42.992L32.8559 33.328L36.3119 35.568H9.30387L12.7599 33.328L8.66387 42.992C8.1092 44.2294 7.5332 45.1254 6.93587 45.68C6.33853 46.2347 5.4852 46.512 4.37587 46.512ZM22.7439 9.77604L13.7839 31.088L12.1199 29.04H33.4959L31.8959 31.088L22.8719 9.77604H22.7439Z" fill="black"/>
<path d="M62.5044 46.64C59.7737 46.64 57.363 45.9787 55.2724 44.656C53.2244 43.3334 51.6244 41.456 50.4724 39.024C49.3204 36.5494 48.7444 33.648 48.7444 30.32C48.7444 26.9494 49.3204 24.0694 50.4724 21.68C51.6244 19.248 53.2244 17.3707 55.2724 16.048C57.363 14.7254 59.7737 14.064 62.5044 14.064C65.107 14.064 67.3684 14.704 69.2884 15.984C71.251 17.264 72.5737 18.9494 73.2564 21.04H72.5524V4.40004C72.5524 3.07738 72.8937 2.07471 73.5764 1.39204C74.259 0.709376 75.2404 0.368042 76.5204 0.368042C77.8004 0.368042 78.7817 0.709376 79.4644 1.39204C80.1897 2.07471 80.5524 3.07738 80.5524 4.40004V42.416C80.5524 43.7387 80.211 44.7627 79.5284 45.488C78.8457 46.1707 77.8644 46.512 76.5844 46.512C75.3044 46.512 74.323 46.1707 73.6404 45.488C72.9577 44.7627 72.6164 43.7387 72.6164 42.416V37.424L73.3204 39.344C72.6804 41.5627 71.379 43.3334 69.4164 44.656C67.4537 45.9787 65.1497 46.64 62.5044 46.64ZM64.7444 40.56C66.323 40.56 67.7097 40.176 68.9044 39.408C70.099 38.64 71.0164 37.5094 71.6564 36.016C72.339 34.48 72.6804 32.5814 72.6804 30.32C72.6804 26.9067 71.955 24.368 70.5044 22.704C69.0537 20.9974 67.1337 20.144 64.7444 20.144C63.1657 20.144 61.779 20.528 60.5844 21.296C59.3897 22.0214 58.451 23.152 57.7684 24.688C57.1284 26.1814 56.8084 28.0587 56.8084 30.32C56.8084 33.6907 57.5337 36.2507 58.9844 38C60.435 39.7067 62.355 40.56 64.7444 40.56Z" fill="black"/>
<path d="M103.119 46.64C99.8767 46.64 97.0607 45.9787 94.6714 44.656C92.282 43.3334 90.426 41.456 89.1034 39.024C87.7807 36.5494 87.1194 33.648 87.1194 30.32C87.1194 27.8027 87.482 25.5627 88.2074 23.6C88.9754 21.5947 90.0634 19.888 91.4714 18.48C92.8794 17.0294 94.5647 15.9414 96.5274 15.216C98.49 14.448 100.687 14.064 103.119 14.064C106.362 14.064 109.178 14.7254 111.567 16.048C113.957 17.3707 115.813 19.248 117.135 21.68C118.458 24.112 119.119 26.992 119.119 30.32C119.119 32.8374 118.735 35.0987 117.967 37.104C117.242 39.1094 116.175 40.8374 114.767 42.288C113.359 43.696 111.674 44.784 109.711 45.552C107.749 46.2774 105.551 46.64 103.119 46.64ZM103.119 40.56C104.698 40.56 106.085 40.176 107.279 39.408C108.474 38.64 109.391 37.5094 110.031 36.016C110.714 34.48 111.055 32.5814 111.055 30.32C111.055 26.9067 110.33 24.368 108.879 22.704C107.429 20.9974 105.509 20.144 103.119 20.144C101.541 20.144 100.154 20.528 98.9594 21.296C97.7647 22.0214 96.826 23.152 96.1434 24.688C95.5034 26.1814 95.1834 28.0587 95.1834 30.32C95.1834 33.6907 95.9087 36.2507 97.3594 38C98.81 39.7067 100.73 40.56 103.119 40.56Z" fill="black"/>
<path d="M129.69 58.032C128.41 58.032 127.429 57.6907 126.746 57.008C126.064 56.3254 125.722 55.3227 125.722 54V18.224C125.722 16.9014 126.064 15.8987 126.746 15.216C127.429 14.5334 128.389 14.192 129.626 14.192C130.906 14.192 131.888 14.5334 132.57 15.216C133.253 15.8987 133.594 16.9014 133.594 18.224V23.216L132.89 21.296C133.53 19.12 134.832 17.3707 136.794 16.048C138.8 14.7254 141.125 14.064 143.77 14.064C146.501 14.064 148.89 14.7254 150.938 16.048C153.029 17.3707 154.65 19.248 155.802 21.68C156.954 24.0694 157.53 26.9494 157.53 30.32C157.53 33.648 156.954 36.5494 155.802 39.024C154.65 41.456 153.05 43.3334 151.002 44.656C148.954 45.9787 146.544 46.64 143.77 46.64C141.168 46.64 138.885 46 136.922 44.72C134.96 43.3974 133.637 41.6907 132.954 39.6H133.722V54C133.722 55.3227 133.36 56.3254 132.634 57.008C131.952 57.6907 130.97 58.032 129.69 58.032ZM141.53 40.56C143.109 40.56 144.496 40.176 145.69 39.408C146.885 38.64 147.802 37.5094 148.442 36.016C149.125 34.48 149.466 32.5814 149.466 30.32C149.466 26.9067 148.741 24.368 147.29 22.704C145.84 20.9974 143.92 20.144 141.53 20.144C139.952 20.144 138.565 20.528 137.37 21.296C136.176 22.0214 135.237 23.152 134.554 24.688C133.914 26.1814 133.594 28.0587 133.594 30.32C133.594 33.6907 134.32 36.2507 135.77 38C137.221 39.7067 139.141 40.56 141.53 40.56Z" fill="black"/>
<path d="M179.521 46.64C175.98 46.64 172.929 45.9787 170.369 44.656C167.809 43.3334 165.825 41.456 164.417 39.024C163.052 36.592 162.369 33.712 162.369 30.384C162.369 27.1414 163.031 24.304 164.353 21.872C165.719 19.44 167.575 17.5414 169.921 16.176C172.311 14.768 175.02 14.064 178.049 14.064C180.268 14.064 182.252 14.4267 184.001 15.152C185.793 15.8774 187.308 16.9227 188.545 18.288C189.825 19.6534 190.785 21.3174 191.425 23.28C192.108 25.2 192.449 27.376 192.449 29.808C192.449 30.576 192.172 31.1734 191.617 31.6C191.105 31.984 190.359 32.176 189.377 32.176H168.833V27.568H186.817L185.793 28.528C185.793 26.5654 185.495 24.9227 184.897 23.6C184.343 22.2774 183.511 21.2747 182.401 20.592C181.335 19.8667 179.991 19.504 178.369 19.504C176.577 19.504 175.041 19.9307 173.761 20.784C172.524 21.5947 171.564 22.768 170.881 24.304C170.241 25.7974 169.921 27.5894 169.921 29.68V30.128C169.921 33.6267 170.732 36.2507 172.353 38C174.017 39.7067 176.449 40.56 179.649 40.56C180.759 40.56 181.996 40.432 183.361 40.176C184.769 39.8774 186.092 39.3867 187.329 38.704C188.225 38.192 189.015 37.9787 189.697 38.064C190.38 38.1067 190.913 38.3414 191.297 38.768C191.724 39.1947 191.98 39.728 192.065 40.368C192.151 40.9654 192.023 41.584 191.681 42.224C191.383 42.864 190.849 43.4187 190.081 43.888C188.588 44.8267 186.86 45.5307 184.897 46C182.977 46.4267 181.185 46.64 179.521 46.64Z" fill="black"/>
<path d="M212.996 46.64C210.223 46.64 207.897 46.1707 206.02 45.232C204.185 44.2934 202.82 42.928 201.924 41.136C201.028 39.3014 200.58 37.04 200.58 34.352V20.72H197.252C196.228 20.72 195.439 20.464 194.884 19.952C194.329 19.3974 194.052 18.6507 194.052 17.712C194.052 16.7307 194.329 15.984 194.884 15.472C195.439 14.96 196.228 14.704 197.252 14.704H200.58V8.88004C200.58 7.55738 200.921 6.55471 201.604 5.87204C202.329 5.18938 203.332 4.84805 204.612 4.84805C205.892 4.84805 206.873 5.18938 207.556 5.87204C208.239 6.55471 208.58 7.55738 208.58 8.88004V14.704H215.364C216.388 14.704 217.177 14.96 217.732 15.472C218.287 15.984 218.564 16.7307 218.564 17.712C218.564 18.6507 218.287 19.3974 217.732 19.952C217.177 20.464 216.388 20.72 215.364 20.72H208.58V33.904C208.58 35.952 209.028 37.488 209.924 38.512C210.82 39.536 212.271 40.048 214.276 40.048C215.001 40.048 215.641 39.984 216.196 39.856C216.751 39.728 217.241 39.6427 217.668 39.6C218.18 39.5574 218.607 39.728 218.948 40.112C219.289 40.4534 219.46 41.1787 219.46 42.288C219.46 43.1414 219.311 43.9094 219.012 44.592C218.756 45.232 218.265 45.68 217.54 45.936C216.985 46.1067 216.26 46.256 215.364 46.384C214.468 46.5547 213.679 46.64 212.996 46.64Z" fill="black"/>
<path d="M240.098 30.6198C239.839 30.5718 239.688 30.5585 239.471 30.5647C238.514 30.5893 237.556 31.1058 236.747 32.0294C236.34 32.4958 235.923 33.2053 235.752 33.7197C235.388 34.8193 235.496 35.869 236.048 36.5648C236.384 36.9918 236.79 37.2188 237.265 37.2466C238.128 37.2991 238.984 37.0038 239.737 36.3935C240.252 35.9773 240.619 35.5373 240.967 34.9238C241.194 34.5222 241.46 33.8113 241.531 33.4114C241.634 32.8273 241.566 32.1878 241.348 31.7189C241.177 31.3462 240.96 31.0808 240.651 30.8602C240.434 30.7071 240.333 30.6636 240.098 30.6198Z" fill="#3DD5F3"/>
<path d="M233.53 27.6283C232.917 27.4668 232.175 27.6733 231.553 28.1781C231.29 28.3899 231.104 28.6079 230.867 28.9754C230.716 29.2099 230.439 29.8031 230.346 30.0921C229.796 31.7929 230.102 33.4544 231.147 34.4507C231.266 34.5652 231.294 34.5854 231.466 34.6724C231.982 34.9335 232.548 34.9398 233.121 34.689C233.646 34.4592 234.146 34.0014 234.537 33.3888C234.654 33.2058 234.918 32.6276 234.997 32.3805C235.182 31.8053 235.271 31.2995 235.284 30.7581C235.306 29.7847 235.015 28.887 234.482 28.2783C234.178 27.9319 233.861 27.7149 233.53 27.6283Z" fill="#3DD5F3"/>
<path d="M241.867 37.8373C241.356 37.6926 240.812 37.6899 240.259 37.8285C240.173 37.8492 239.989 37.9106 239.85 37.9637C239.417 38.1305 239.081 38.3253 238.693 38.6347C238.263 38.9797 237.974 39.3037 237.614 39.846C237.426 40.1293 237.243 40.5219 237.171 40.7949C237.023 41.3507 237.024 41.8623 237.176 42.3177C237.308 42.7188 237.542 43.0322 237.869 43.2488C238.089 43.3948 238.448 43.5102 238.821 43.5522C240.146 43.7024 241.689 42.8372 242.531 41.472C242.59 41.3748 242.651 41.2685 242.667 41.2344C242.684 41.1988 242.729 41.121 242.769 41.0602C242.831 40.9658 242.852 40.9168 242.911 40.7347C243.054 40.2941 243.099 40.0191 243.092 39.6382C243.08 39.0125 242.83 38.4561 242.407 38.1131C242.275 38.0067 242.039 37.8843 241.867 37.8373Z" fill="#3DD5F3"/>
<path d="M227.102 31.3884C227.078 31.3807 226.989 31.3586 226.908 31.3399C226.285 31.2033 225.633 31.3911 225.211 31.8319C225.072 31.9798 224.918 32.1765 224.803 32.3566C224.748 32.4453 224.672 32.5625 224.638 32.6175C224.544 32.7627 224.497 32.8756 224.397 33.1753C224.192 33.7883 224.118 34.2613 224.137 34.8622C224.151 35.3243 224.235 35.769 224.388 36.1899C224.536 36.6004 224.724 36.9425 224.972 37.2505C225.147 37.4687 225.264 37.5874 225.482 37.7686C225.634 37.8948 225.668 37.9163 225.841 37.9984C226.002 38.0738 226.058 38.0925 226.197 38.1194C226.792 38.2323 227.454 38.0042 227.923 37.5248C228.044 37.4013 228.225 37.1582 228.349 36.9512C228.468 36.7555 228.699 36.2295 228.762 36.013C228.913 35.4893 228.971 34.9065 228.926 34.3695C228.89 33.9214 228.823 33.6236 228.664 33.1874C228.503 32.745 228.339 32.4486 228.05 32.0751C227.825 31.7846 227.615 31.6138 227.311 31.4772C227.221 31.4355 227.127 31.3968 227.102 31.3884Z" fill="#3DD5F3"/>
<path d="M232.805 38.2808C231.64 37.8846 230.406 37.8827 229.221 38.2738C228.903 38.3783 228.709 38.4645 228.32 38.6729C227.334 39.1986 226.445 39.8269 225.718 40.5081C225.37 40.8359 225.1 41.1377 224.625 41.7303C224.46 41.9371 224.421 41.9951 224.335 42.1597C224.012 42.7949 224.043 43.5752 224.42 44.1841C224.646 44.5489 224.898 44.755 225.378 44.9596C225.945 45.2031 226.356 45.279 227.68 45.3837C228.679 45.4632 229.124 45.541 229.652 45.7281C230.128 45.8983 230.195 45.9259 230.406 46.0434C230.906 46.3253 231.285 46.6457 231.907 47.3164C232.931 48.4192 232.911 48.3994 233.123 48.5575C233.403 48.7657 233.652 48.9081 233.8 48.946C233.841 48.9546 233.946 48.9846 234.035 49.0087C234.519 49.1479 235.025 49.1068 235.423 48.8975C235.761 48.7208 235.98 48.4675 236.191 48.0151C236.439 47.4781 236.527 46.8714 236.509 45.817C236.502 45.3856 236.482 45.1911 236.353 44.3084C236.064 42.3256 235.655 41.0593 234.953 39.9683C234.577 39.3861 234.184 39.0071 233.564 38.6332C233.422 38.546 232.966 38.3352 232.805 38.2808Z" fill="#3DD5F3"/>
</svg>
